STARTFONT 2.1
FONT -thai-dbthaitext-medium-r-normal--25-180-100-100-p-75-tis620-0
SIZE 18 100 100
FONTBOUNDINGBOX 32 28 -8 -10
STARTPROPERTIES 25
FOUNDRY "thai"
FAMILY_NAME "dbthaitext"
WEIGHT_NAME "medium"
SLANT "r"
SETWIDTH_NAME "normal"
ADD_STYLE_NAME ""
PIXEL_SIZE 25
POINT_SIZE 180
RESOLUTION_X 100
RESOLUTION_Y 100
SPACING "p"
AVERAGE_WIDTH 75
CHARSET_REGISTRY "tis620"
CHARSET_ENCODING "0"
FONT "-thai-dbthaitext-medium-r-normal--25-180-100-100-p-75-tis620-0"
COPYRIGHT "Typeface (c) The Monotype Corporation plc. Data (c) The Monotype Corporation plc/Type Solutions Inc. 1990-1992. All Rights Reserved"
RAW_PIXELSIZE 1000
RAW_POINTSIZE 723
RAW_ASCENT 736
RAW_DESCENT 415
RAW_AVERAGE_WIDTH 2994
FACE_NAME "DBThaiTexthickne5"
DEFAULT_CHAR 0
FONT_ASCENT 18
FONT_DESCENT 10
ENDPROPERTIES
CHARS 190
STARTCHAR space
ENCODING 32
SWIDTH 240 0
DWIDTH 6 0
BBX 0 0 0 0
BITMAP
ENDCHAR
STARTCHAR exclam
ENCODING 33
SWIDTH 160 0
DWIDTH 4 0
BBX 1 11 2 0
BITMAP
80
80
80
80
80
80
80
80
80
00
80
ENDCHAR
STARTCHAR quotedbl
ENCODING 34
SWIDTH 200 0
DWIDTH 5 0
BBX 3 4 1 7
BITMAP
a0
a0
a0
a0
ENDCHAR
STARTCHAR numbersign
ENCODING 35
SWIDTH 320 0
DWIDTH 8 0
BBX 8 10 0 0
BITMAP
12
12
36
7f
24
24
ff
6c
48
48
ENDCHAR
STARTCHAR dollar
ENCODING 36
SWIDTH 320 0
DWIDTH 8 0
BBX 8 14 0 -2
BITMAP
08
1c
7e
4b
48
68
3c
0f
09
49
4b
3e
08
08
ENDCHAR
STARTCHAR percent
ENCODING 37
SWIDTH 520 0
DWIDTH 13 0
BBX 13 11 0 0
BITMAP
0040
7040
8880
8900
8900
7200
0270
0488
0888
0888
1070
ENDCHAR
STARTCHAR ampersand
ENCODING 38
SWIDTH 400 0
DWIDTH 10 0
BBX 9 11 1 0
BITMAP
1000
6c00
4400
4c00
3800
3000
db00
8e00
8600
c600
7b00
ENDCHAR
STARTCHAR apostrophe
ENCODING 39
SWIDTH 120 0
DWIDTH 3 0
BBX 1 4 1 7
BITMAP
80
80
80
80
ENDCHAR
STARTCHAR parenleft
ENCODING 40
SWIDTH 200 0
DWIDTH 5 0
BBX 3 14 1 -3
BITMAP
20
20
40
40
c0
80
80
80
80
c0
40
40
60
20
ENDCHAR
STARTCHAR parenright
ENCODING 41
SWIDTH 200 0
DWIDTH 5 0
BBX 3 14 1 -3
BITMAP
80
80
40
40
60
60
20
20
20
60
40
40
c0
80
ENDCHAR
STARTCHAR asterisk
ENCODING 42
SWIDTH 240 0
DWIDTH 6 0
BBX 4 4 1 7
BITMAP
40
f0
60
a0
ENDCHAR
STARTCHAR plus
ENCODING 43
SWIDTH 360 0
DWIDTH 9 0
BBX 7 7 1 0
BITMAP
10
10
10
fe
10
10
10
ENDCHAR
STARTCHAR comma
ENCODING 44
SWIDTH 160 0
DWIDTH 4 0
BBX 2 3 1 -1
BITMAP
c0
c0
40
ENDCHAR
STARTCHAR minus
ENCODING 45
SWIDTH 200 0
DWIDTH 5 0
BBX 4 1 0 4
BITMAP
f0
ENDCHAR
STARTCHAR period
ENCODING 46
SWIDTH 160 0
DWIDTH 4 0
BBX 2 2 1 0
BITMAP
c0
c0
ENDCHAR
STARTCHAR slash
ENCODING 47
SWIDTH 160 0
DWIDTH 4 0
BBX 4 11 0 0
BITMAP
10
10
10
20
20
20
40
40
40
80
80
ENDCHAR
STARTCHAR 0
ENCODING 48
SWIDTH 280 0
DWIDTH 7 0
BBX 6 9 0 0
BITMAP
78
48
84
84
84
84
84
cc
78
ENDCHAR
STARTCHAR 1
ENCODING 49
SWIDTH 280 0
DWIDTH 7 0
BBX 3 9 1 0
BITMAP
20
20
e0
20
20
20
20
20
20
ENDCHAR
STARTCHAR 2
ENCODING 50
SWIDTH 280 0
DWIDTH 7 0
BBX 6 9 0 0
BITMAP
78
4c
84
04
08
30
40
80
fc
ENDCHAR
STARTCHAR 3
ENCODING 51
SWIDTH 280 0
DWIDTH 7 0
BBX 6 9 0 0
BITMAP
38
44
44
08
18
04
84
44
78
ENDCHAR
STARTCHAR 4
ENCODING 52
SWIDTH 280 0
DWIDTH 7 0
BBX 7 9 0 0
BITMAP
08
18
18
28
48
c8
fe
08
08
ENDCHAR
STARTCHAR 5
ENCODING 53
SWIDTH 280 0
DWIDTH 7 0
BBX 6 9 0 0
BITMAP
7c
40
40
b8
cc
04
04
8c
78
ENDCHAR
STARTCHAR 6
ENCODING 54
SWIDTH 280 0
DWIDTH 7 0
BBX 6 9 1 0
BITMAP
38
4c
80
b0
e8
84
84
c4
78
ENDCHAR
STARTCHAR 7
ENCODING 55
SWIDTH 280 0
DWIDTH 7 0
BBX 6 9 1 0
BITMAP
fc
04
08
10
10
20
20
60
40
ENDCHAR
STARTCHAR 8
ENCODING 56
SWIDTH 280 0
DWIDTH 7 0
BBX 6 9 1 0
BITMAP
78
48
84
c8
78
84
84
84
78
ENDCHAR
STARTCHAR 9
ENCODING 57
SWIDTH 280 0
DWIDTH 7 0
BBX 6 9 0 0
BITMAP
78
c8
84
84
cc
74
04
c8
70
ENDCHAR
STARTCHAR colon
ENCODING 58
SWIDTH 160 0
DWIDTH 4 0
BBX 2 8 1 0
BITMAP
c0
40
00
00
00
00
c0
c0
ENDCHAR
STARTCHAR semicolon
ENCODING 59
SWIDTH 160 0
DWIDTH 4 0
BBX 3 9 0 -1
BITMAP
e0
40
00
00
00
00
e0
e0
20
ENDCHAR
STARTCHAR less
ENCODING 60
SWIDTH 360 0
DWIDTH 9 0
BBX 7 7 1 0
BITMAP
02
1c
70
80
70
0c
02
ENDCHAR
STARTCHAR equal
ENCODING 61
SWIDTH 360 0
DWIDTH 9 0
BBX 7 3 1 2
BITMAP
fe
00
fe
ENDCHAR
STARTCHAR greater
ENCODING 62
SWIDTH 360 0
DWIDTH 9 0
BBX 7 7 1 0
BITMAP
80
60
1c
02
0c
70
80
ENDCHAR
STARTCHAR question
ENCODING 63
SWIDTH 320 0
DWIDTH 8 0
BBX 7 11 1 0
BITMAP
38
44
c6
06
0c
08
10
10
00
00
10
ENDCHAR
STARTCHAR at
ENCODING 64
SWIDTH 600 0
DWIDTH 15 0
BBX 13 13 1 -2
BITMAP
0f80
3860
2030
4718
4dc8
98c8
9088
9088
9990
4ee0
4000
3000
0f80
ENDCHAR
STARTCHAR A
ENCODING 65
SWIDTH 400 0
DWIDTH 10 0
BBX 10 11 0 0
BITMAP
0c00
1e00
1e00
1a00
3300
3300
2300
7f80
4180
c080
c0c0
ENDCHAR
STARTCHAR B
ENCODING 66
SWIDTH 400 0
DWIDTH 10 0
BBX 8 11 1 0
BITMAP
fe
87
83
83
82
fe
83
81
81
83
fe
ENDCHAR
STARTCHAR C
ENCODING 67
SWIDTH 440 0
DWIDTH 11 0
BBX 9 11 1 0
BITMAP
3e00
6300
4180
c000
8000
8000
8000
8080
4180
6300
3e00
ENDCHAR
STARTCHAR D
ENCODING 68
SWIDTH 440 0
DWIDTH 11 0
BBX 8 11 2 0
BITMAP
f8
86
82
83
81
81
81
83
82
86
fc
ENDCHAR
STARTCHAR E
ENCODING 69
SWIDTH 400 0
DWIDTH 10 0
BBX 7 11 2 0
BITMAP
fe
80
80
80
80
fe
80
80
80
80
fe
ENDCHAR
STARTCHAR F
ENCODING 70
SWIDTH 360 0
DWIDTH 9 0
BBX 7 11 2 0
BITMAP
fe
80
80
80
80
fc
80
80
80
80
80
ENDCHAR
STARTCHAR G
ENCODING 71
SWIDTH 480 0
DWIDTH 12 0
BBX 10 11 1 0
BITMAP
1f00
6180
40c0
8000
8000
87c0
8040
80c0
40c0
61c0
1e40
ENDCHAR
STARTCHAR H
ENCODING 72
SWIDTH 440 0
DWIDTH 11 0
BBX 8 11 1 0
BITMAP
81
81
81
81
81
ff
81
81
81
81
81
ENDCHAR
STARTCHAR I
ENCODING 73
SWIDTH 160 0
DWIDTH 4 0
BBX 1 11 2 0
BITMAP
80
80
80
80
80
80
80
80
80
80
80
ENDCHAR
STARTCHAR J
ENCODING 74
SWIDTH 280 0
DWIDTH 7 0
BBX 6 11 0 0
BITMAP
04
04
04
04
04
04
04
04
84
c4
78
ENDCHAR
STARTCHAR K
ENCODING 75
SWIDTH 400 0
DWIDTH 10 0
BBX 9 11 1 0
BITMAP
8380
8700
8e00
9800
b000
f800
cc00
8400
8600
8300
8100
ENDCHAR
STARTCHAR L
ENCODING 76
SWIDTH 320 0
DWIDTH 8 0
BBX 7 11 1 0
BITMAP
80
80
80
80
80
80
80
80
80
80
fe
ENDCHAR
STARTCHAR M
ENCODING 77
SWIDTH 480 0
DWIDTH 12 0
BBX 10 11 1 0
BITMAP
c0c0
e0c0
e140
a140
b140
b140
9240
9a40
8a40
8c40
8c40
ENDCHAR
STARTCHAR N
ENCODING 78
SWIDTH 440 0
DWIDTH 11 0
BBX 8 11 1 0
BITMAP
c1
e1
e1
b1
91
99
8d
85
87
83
81
ENDCHAR
STARTCHAR O
ENCODING 79
SWIDTH 480 0
DWIDTH 12 0
BBX 10 11 1 0
BITMAP
1e00
6380
4080
80c0
8040
8040
8040
80c0
4080
6180
1e00
ENDCHAR
STARTCHAR P
ENCODING 80
SWIDTH 400 0
DWIDTH 10 0
BBX 7 11 2 0
BITMAP
fc
86
82
82
86
fc
80
80
80
80
80
ENDCHAR
STARTCHAR Q
ENCODING 81
SWIDTH 480 0
DWIDTH 12 0
BBX 10 11 1 0
BITMAP
1e00
6380
4080
80c0
8040
8040
8040
80c0
4280
6380
1ec0
ENDCHAR
STARTCHAR R
ENCODING 82
SWIDTH 440 0
DWIDTH 11 0
BBX 8 11 2 0
BITMAP
fc
82
83
83
82
fc
86
82
82
82
83
ENDCHAR
STARTCHAR S
ENCODING 83
SWIDTH 400 0
DWIDTH 10 0
BBX 8 11 1 0
BITMAP
3c
42
c3
c0
e0
3e
07
01
81
c3
7c
ENDCHAR
STARTCHAR T
ENCODING 84
SWIDTH 360 0
DWIDTH 9 0
BBX 9 11 0 0
BITMAP
ff80
0800
0800
0800
0800
0800
0800
0800
0800
0800
0800
ENDCHAR
STARTCHAR U
ENCODING 85
SWIDTH 440 0
DWIDTH 11 0
BBX 8 11 1 0
BITMAP
81
81
81
81
81
81
81
81
81
c3
3e
ENDCHAR
STARTCHAR V
ENCODING 86
SWIDTH 400 0
DWIDTH 10 0
BBX 9 11 1 0
BITMAP
8180
4180
4100
4300
2300
2200
3600
1400
1400
1c00
0800
ENDCHAR
STARTCHAR W
ENCODING 87
SWIDTH 560 0
DWIDTH 14 0
BBX 14 11 0 0
BITMAP
c30c
c30c
4788
6688
6498
6498
2cd0
28d0
3870
3870
1060
ENDCHAR
STARTCHAR X
ENCODING 88
SWIDTH 400 0
DWIDTH 10 0
BBX 9 11 1 0
BITMAP
4180
6300
2200
1400
1c00
0800
1c00
3600
2200
6100
c180
ENDCHAR
STARTCHAR Y
ENCODING 89
SWIDTH 400 0
DWIDTH 10 0
BBX 10 11 0 0
BITMAP
40c0
6180
3180
1100
1a00
0e00
0400
0400
0400
0400
0400
ENDCHAR
STARTCHAR Z
ENCODING 90
SWIDTH 360 0
DWIDTH 9 0
BBX 8 11 1 0
BITMAP
ff
03
06
0c
0c
18
30
30
60
c0
ff
ENDCHAR
STARTCHAR bracketleft
ENCODING 91
SWIDTH 160 0
DWIDTH 4 0
BBX 3 14 1 -3
BITMAP
e0
80
80
80
80
80
80
80
80
80
80
80
80
e0
ENDCHAR
STARTCHAR backslash
ENCODING 92
SWIDTH 160 0
DWIDTH 4 0
BBX 4 11 0 0
BITMAP
80
80
40
40
40
20
20
20
20
10
10
ENDCHAR
STARTCHAR bracketright
ENCODING 93
SWIDTH 160 0
DWIDTH 4 0
BBX 3 14 0 -3
BITMAP
e0
20
20
20
20
20
20
20
20
20
20
20
20
e0
ENDCHAR
STARTCHAR asciicircum
ENCODING 94
SWIDTH 280 0
DWIDTH 7 0
BBX 6 6 1 5
BITMAP
30
30
78
48
48
8c
ENDCHAR
STARTCHAR underscore
ENCODING 95
SWIDTH 320 0
DWIDTH 8 0
BBX 9 1 0 -3
BITMAP
ff80
ENDCHAR
STARTCHAR grave
ENCODING 96
SWIDTH 160 0
DWIDTH 4 0
BBX 4 4 0 2
BITMAP
f0
f0
f0
60
ENDCHAR
STARTCHAR a
ENCODING 97
SWIDTH 320 0
DWIDTH 8 0
BBX 7 8 1 0
BITMAP
78
c4
04
1c
e4
84
8c
f6
ENDCHAR
STARTCHAR b
ENCODING 98
SWIDTH 320 0
DWIDTH 8 0
BBX 7 11 1 0
BITMAP
80
80
80
b8
cc
86
86
86
86
c4
78
ENDCHAR
STARTCHAR c
ENCODING 99
SWIDTH 280 0
DWIDTH 7 0
BBX 6 8 1 0
BITMAP
38
4c
84
80
80
84
cc
78
ENDCHAR
STARTCHAR d
ENCODING 100
SWIDTH 320 0
DWIDTH 8 0
BBX 7 11 0 0
BITMAP
02
02
02
3a
66
42
c2
c2
42
66
3a
ENDCHAR
STARTCHAR e
ENCODING 101
SWIDTH 320 0
DWIDTH 8 0
BBX 7 8 1 0
BITMAP
3c
44
c2
82
fe
80
c6
38
ENDCHAR
STARTCHAR f
ENCODING 102
SWIDTH 160 0
DWIDTH 4 0
BBX 4 11 0 0
BITMAP
70
60
40
f0
40
40
40
40
40
40
40
ENDCHAR
STARTCHAR g
ENCODING 103
SWIDTH 320 0
DWIDTH 8 0
BBX 7 11 0 -3
BITMAP
3e
66
42
c2
c2
42
46
3a
02
42
3c
ENDCHAR
STARTCHAR h
ENCODING 104
SWIDTH 320 0
DWIDTH 8 0
BBX 6 11 1 0
BITMAP
80
80
80
b8
c4
84
84
84
84
84
84
ENDCHAR
STARTCHAR i
ENCODING 105
SWIDTH 120 0
DWIDTH 3 0
BBX 1 11 1 0
BITMAP
80
00
00
80
80
80
80
80
80
80
80
ENDCHAR
STARTCHAR j
ENCODING 106
SWIDTH 120 0
DWIDTH 3 0
BBX 2 14 0 -3
BITMAP
40
00
00
40
40
40
40
40
40
40
40
40
40
c0
ENDCHAR
STARTCHAR k
ENCODING 107
SWIDTH 280 0
DWIDTH 7 0
BBX 7 11 1 0
BITMAP
80
80
80
8c
98
b0
f0
d0
98
8c
84
ENDCHAR
STARTCHAR l
ENCODING 108
SWIDTH 120 0
DWIDTH 3 0
BBX 1 11 1 0
BITMAP
80
80
80
80
80
80
80
80
80
80
80
ENDCHAR
STARTCHAR m
ENCODING 109
SWIDTH 480 0
DWIDTH 12 0
BBX 10 8 1 0
BITMAP
bb80
cc40
8440
8440
8440
8440
8440
8440
ENDCHAR
STARTCHAR n
ENCODING 110
SWIDTH 320 0
DWIDTH 8 0
BBX 6 8 1 0
BITMAP
b8
c4
84
84
84
84
84
84
ENDCHAR
STARTCHAR o
ENCODING 111
SWIDTH 320 0
DWIDTH 8 0
BBX 6 8 1 0
BITMAP
78
c8
84
84
84
84
c8
78
ENDCHAR
STARTCHAR p
ENCODING 112
SWIDTH 320 0
DWIDTH 8 0
BBX 7 11 1 -3
BITMAP
b8
cc
86
86
86
86
c4
b8
80
80
80
ENDCHAR
STARTCHAR q
ENCODING 113
SWIDTH 320 0
DWIDTH 8 0
BBX 6 11 1 -3
BITMAP
74
4c
84
84
84
84
4c
34
04
04
04
ENDCHAR
STARTCHAR r
ENCODING 114
SWIDTH 200 0
DWIDTH 5 0
BBX 4 8 1 0
BITMAP
b0
e0
c0
80
80
80
80
80
ENDCHAR
STARTCHAR s
ENCODING 115
SWIDTH 280 0
DWIDTH 7 0
BBX 6 8 1 0
BITMAP
78
84
80
60
38
04
84
78
ENDCHAR
STARTCHAR t
ENCODING 116
SWIDTH 160 0
DWIDTH 4 0
BBX 4 10 0 0
BITMAP
40
40
f0
40
40
40
40
40
40
70
ENDCHAR
STARTCHAR u
ENCODING 117
SWIDTH 320 0
DWIDTH 8 0
BBX 6 8 1 0
BITMAP
84
84
84
84
84
84
8c
70
ENDCHAR
STARTCHAR v
ENCODING 118
SWIDTH 280 0
DWIDTH 7 0
BBX 7 8 0 0
BITMAP
86
46
44
4c
28
28
38
10
ENDCHAR
STARTCHAR w
ENCODING 119
SWIDTH 440 0
DWIDTH 11 0
BBX 10 8 0 0
BITMAP
8cc0
8cc0
4c80
4e80
5280
3280
3300
3100
ENDCHAR
STARTCHAR x
ENCODING 120
SWIDTH 280 0
DWIDTH 7 0
BBX 7 8 0 0
BITMAP
c6
6c
28
38
38
28
6c
c6
ENDCHAR
STARTCHAR y
ENCODING 121
SWIDTH 280 0
DWIDTH 7 0
BBX 7 11 0 -3
BITMAP
c6
c6
44
6c
68
28
38
30
30
30
60
ENDCHAR
STARTCHAR z
ENCODING 122
SWIDTH 280 0
DWIDTH 7 0
BBX 7 8 0 0
BITMAP
7e
06
0c
18
10
20
60
fe
ENDCHAR
STARTCHAR braceleft
ENCODING 123
SWIDTH 200 0
DWIDTH 5 0
BBX 3 14 1 -3
BITMAP
20
40
40
40
40
40
80
80
40
40
40
40
40
60
ENDCHAR
STARTCHAR bar
ENCODING 124
SWIDTH 160 0
DWIDTH 4 0
BBX 1 14 1 -3
BITMAP
80
80
80
80
80
80
80
80
80
80
80
80
80
80
ENDCHAR
STARTCHAR braceright
ENCODING 125
SWIDTH 200 0
DWIDTH 5 0
BBX 4 14 0 -3
BITMAP
c0
20
20
20
20
20
10
10
20
20
20
20
20
e0
ENDCHAR
STARTCHAR asciitilde
ENCODING 126
SWIDTH 360 0
DWIDTH 9 0
BBX 6 3 1 4
BITMAP
40
b4
88
ENDCHAR
STARTCHAR exclamdown
ENCODING 161
SWIDTH 360 0
DWIDTH 9 0
BBX 7 8 1 0
BITMAP
7c
c2
c2
82
82
82
82
82
ENDCHAR
STARTCHAR cent
ENCODING 162
SWIDTH 360 0
DWIDTH 9 0
BBX 7 8 1 0
BITMAP
f2
aa
ca
12
12
12
12
3e
ENDCHAR
STARTCHAR sterling
ENCODING 163
SWIDTH 400 0
DWIDTH 10 0
BBX 8 8 0 0
BITMAP
7d
ed
99
69
09
09
09
1f
ENDCHAR
STARTCHAR currency
ENCODING 164
SWIDTH 360 0
DWIDTH 9 0
BBX 7 9 1 0
BITMAP
78
44
a2
da
fa
42
42
42
42
ENDCHAR
STARTCHAR yen
ENCODING 165
SWIDTH 360 0
DWIDTH 9 0
BBX 7 8 1 0
BITMAP
7c
a2
da
fa
c2
42
42
42
ENDCHAR
STARTCHAR brokenbar
ENCODING 166
SWIDTH 440 0
DWIDTH 11 0
BBX 10 8 0 0
BITMAP
7c40
ec40
9840
6840
1c40
1b40
18c0
1840
ENDCHAR
STARTCHAR section
ENCODING 167
SWIDTH 280 0
DWIDTH 7 0
BBX 6 8 0 0
BITMAP
1c
1c
44
44
64
24
14
1c
ENDCHAR
STARTCHAR diaeresis
ENCODING 168
SWIDTH 360 0
DWIDTH 9 0
BBX 6 8 1 0
BITMAP
78
84
74
5c
3c
04
04
04
ENDCHAR
STARTCHAR copyright
ENCODING 169
SWIDTH 400 0
DWIDTH 10 0
BBX 9 8 1 0
BITMAP
3c00
4200
e200
a200
e600
3b80
2280
2300
ENDCHAR
STARTCHAR ordfeminine
ENCODING 170
SWIDTH 360 0
DWIDTH 9 0
BBX 8 9 1 0
BITMAP
61
d2
ac
d2
12
12
12
12
3e
ENDCHAR
STARTCHAR guillemotleft
ENCODING 171
SWIDTH 400 0
DWIDTH 10 0
BBX 9 9 0 0
BITMAP
2880
5500
ef00
9900
6900
0900
0900
0900
1f00
ENDCHAR
STARTCHAR notsign
ENCODING 172
SWIDTH 480 0
DWIDTH 12 0
BBX 10 8 1 0
BITMAP
fc40
4440
c440
8440
8440
ef40
9dc0
ec40
ENDCHAR
STARTCHAR hyphen
ENCODING 173
SWIDTH 480 0
DWIDTH 12 0
BBX 10 12 1 -4
BITMAP
fc40
4440
c440
8440
8440
e440
9440
efc0
0000
0e40
0ac0
0780
ENDCHAR
STARTCHAR registered
ENCODING 174
SWIDTH 400 0
DWIDTH 10 0
BBX 9 12 0 -4
BITMAP
1f00
3080
3080
2080
2080
6080
a080
6080
0480
3c80
4e80
3980
ENDCHAR
STARTCHAR macron
ENCODING 175
SWIDTH 400 0
DWIDTH 10 0
BBX 9 12 0 -4
BITMAP
1f00
3080
3080
2080
2080
6080
a080
6080
0880
3880
4a80
7580
ENDCHAR
STARTCHAR degree
ENCODING 176
SWIDTH 320 0
DWIDTH 8 0
BBX 8 13 0 -5
BITMAP
3f
38
06
32
2a
36
06
06
00
16
56
aa
54
ENDCHAR
STARTCHAR plusminus
ENCODING 177
SWIDTH 480 0
DWIDTH 12 0
BBX 10 8 0 0
BITMAP
7dc0
ef40
9a40
6e40
0c40
0c40
0840
0840
ENDCHAR
STARTCHAR twosuperior
ENCODING 178
SWIDTH 520 0
DWIDTH 13 0
BBX 10 8 1 0
BITMAP
7c40
8240
ba40
aa40
9240
6740
66c0
4640
ENDCHAR
STARTCHAR threesuperior
ENCODING 179
SWIDTH 480 0
DWIDTH 12 0
BBX 11 8 1 0
BITMAP
fc80
4480
c480
8480
8480
e5e0
96a0
e4e0
ENDCHAR
STARTCHAR acute
ENCODING 180
SWIDTH 360 0
DWIDTH 9 0
BBX 7 9 1 0
BITMAP
38
c4
82
ba
aa
92
62
62
42
ENDCHAR
STARTCHAR mu
ENCODING 181
SWIDTH 360 0
DWIDTH 9 0
BBX 7 8 1 0
BITMAP
7c
82
ba
aa
92
62
62
42
ENDCHAR
STARTCHAR paragraph
ENCODING 182
SWIDTH 360 0
DWIDTH 9 0
BBX 7 8 1 0
BITMAP
7c
c2
c2
82
82
e2
92
e2
ENDCHAR
STARTCHAR periodcentered
ENCODING 183
SWIDTH 360 0
DWIDTH 9 0
BBX 8 8 1 0
BITMAP
e7
e9
31
31
21
21
21
21
ENDCHAR
STARTCHAR cedilla
ENCODING 184
SWIDTH 320 0
DWIDTH 8 0
BBX 7 8 1 0
BITMAP
fc
f0
0c
44
44
44
44
fc
ENDCHAR
STARTCHAR onesuperior
ENCODING 185
SWIDTH 400 0
DWIDTH 10 0
BBX 9 8 1 0
BITMAP
e200
e200
2200
2200
2700
2a80
3280
2380
ENDCHAR
STARTCHAR masculine
ENCODING 186
SWIDTH 400 0
DWIDTH 10 0
BBX 7 8 1 0
BITMAP
e2
e2
22
22
22
22
22
7e
ENDCHAR
STARTCHAR guillemotright
ENCODING 187
SWIDTH 400 0
DWIDTH 10 0
BBX 7 12 1 0
BITMAP
02
02
02
42
a2
e2
22
22
22
22
22
7e
ENDCHAR
STARTCHAR onequarter
ENCODING 188
SWIDTH 360 0
DWIDTH 9 0
BBX 7 8 1 0
BITMAP
e2
e2
82
92
ba
e6
c2
82
ENDCHAR
STARTCHAR onehalf
ENCODING 189
SWIDTH 360 0
DWIDTH 9 0
BBX 7 12 1 0
BITMAP
02
02
02
42
a2
e2
82
92
ba
e6
c2
82
ENDCHAR
STARTCHAR threequarters
ENCODING 190
SWIDTH 440 0
DWIDTH 11 0
BBX 9 8 1 0
BITMAP
e480
e480
2a80
2a80
3380
2180
2180
2080
ENDCHAR
STARTCHAR questiondown
ENCODING 191
SWIDTH 440 0
DWIDTH 11 0
BBX 9 12 1 0
BITMAP
0080
0080
0080
4080
a480
ec80
2a80
2a80
3380
2180
2180
2080
ENDCHAR
STARTCHAR Agrave
ENCODING 192
SWIDTH 400 0
DWIDTH 10 0
BBX 9 8 0 0
BITMAP
1f00
3080
3080
2080
2080
6080
a080
6080
ENDCHAR
STARTCHAR Aacute
ENCODING 193
SWIDTH 400 0
DWIDTH 10 0
BBX 7 8 1 0
BITMAP
e2
e2
22
22
72
ae
a2
e2
ENDCHAR
STARTCHAR Acircumflex
ENCODING 194
SWIDTH 360 0
DWIDTH 9 0
BBX 6 8 1 0
BITMAP
e4
e4
84
64
64
84
84
fc
ENDCHAR
STARTCHAR Atilde
ENCODING 195
SWIDTH 320 0
DWIDTH 8 0
BBX 6 8 1 0
BITMAP
fc
f0
08
08
08
18
28
18
ENDCHAR
STARTCHAR Adiaeresis
ENCODING 196
SWIDTH 360 0
DWIDTH 9 0
BBX 7 12 1 -4
BITMAP
7c
c2
c2
82
82
e2
92
e2
02
02
02
02
ENDCHAR
STARTCHAR Aring
ENCODING 197
SWIDTH 360 0
DWIDTH 9 0
BBX 6 8 1 0
BITMAP
78
84
74
8c
8c
e4
94
64
ENDCHAR
STARTCHAR AE
ENCODING 198
SWIDTH 400 0
DWIDTH 10 0
BBX 9 12 0 -4
BITMAP
1f00
3080
3080
2080
2080
6080
a080
6080
0080
0080
0080
0080
ENDCHAR
STARTCHAR Ccedilla
ENCODING 199
SWIDTH 320 0
DWIDTH 8 0
BBX 7 8 0 0
BITMAP
7c
42
02
02
02
0e
0a
0e
ENDCHAR
STARTCHAR Egrave
ENCODING 200
SWIDTH 360 0
DWIDTH 9 0
BBX 8 9 1 0
BITMAP
39
c6
b6
ca
fa
c2
42
42
42
ENDCHAR
STARTCHAR Eacute
ENCODING 201
SWIDTH 400 0
DWIDTH 10 0
BBX 9 8 1 0
BITMAP
e200
e200
3e80
3780
2e00
2200
2200
7e00
ENDCHAR
STARTCHAR Ecircumflex
ENCODING 202
SWIDTH 360 0
DWIDTH 9 0
BBX 7 9 1 0
BITMAP
06
7c
8c
74
8c
8c
e4
94
64
ENDCHAR
STARTCHAR Ediaeresis
ENCODING 203
SWIDTH 400 0
DWIDTH 10 0
BBX 8 8 1 0
BITMAP
e7
e5
26
29
31
21
21
21
ENDCHAR
STARTCHAR Igrave
ENCODING 204
SWIDTH 440 0
DWIDTH 11 0
BBX 10 10 1 0
BITMAP
0140
42c0
a780
ec80
2c80
2a80
3380
2180
2180
2180
ENDCHAR
STARTCHAR Iacute
ENCODING 205
SWIDTH 360 0
DWIDTH 9 0
BBX 7 8 1 0
BITMAP
7c
82
e2
92
e2
82
82
fe
ENDCHAR
STARTCHAR Icircumflex
ENCODING 206
SWIDTH 360 0
DWIDTH 9 0
BBX 8 9 1 0
BITMAP
01
7f
7e
02
62
92
e2
82
7e
ENDCHAR
STARTCHAR Idiaeresis
ENCODING 207
SWIDTH 320 0
DWIDTH 8 0
BBX 6 8 1 0
BITMAP
e4
a4
ec
9c
74
04
04
18
ENDCHAR
STARTCHAR ETH
ENCODING 208
SWIDTH 280 0
DWIDTH 7 0
BBX 5 8 1 0
BITMAP
c8
f0
00
00
00
c8
a8
70
ENDCHAR
STARTCHAR Ntilde
ENCODING 209
SWIDTH 0 0
DWIDTH 0 0
BBX 7 4 -5 10
BITMAP
40
a2
a4
78
ENDCHAR
STARTCHAR Ograve
ENCODING 210
SWIDTH 280 0
DWIDTH 7 0
BBX 6 8 0 0
BITMAP
78
44
04
04
04
04
04
04
ENDCHAR
STARTCHAR Oacute
ENCODING 211
SWIDTH 280 0
DWIDTH 7 0
BBX 9 13 -3 0
BITMAP
c000
a000
c000
0000
0000
0f00
0880
0080
0080
0080
0080
0080
0080
ENDCHAR
STARTCHAR Ocircumflex
ENCODING 212
SWIDTH 0 0
DWIDTH 0 0
BBX 7 3 -8 10
BITMAP
7c
fc
06
ENDCHAR
STARTCHAR Otilde
ENCODING 213
SWIDTH 40 0
DWIDTH 1 0
BBX 7 4 -8 10
BITMAP
02
3e
7e
02
ENDCHAR
STARTCHAR Odiaeresis
ENCODING 214
SWIDTH 0 0
DWIDTH 0 0
BBX 7 5 -8 10
BITMAP
04
1a
6e
fc
06
ENDCHAR
STARTCHAR multiply
ENCODING 215
SWIDTH 40 0
DWIDTH 1 0
BBX 7 4 -8 10
BITMAP
0a
36
7e
02
ENDCHAR
STARTCHAR Ooblique
ENCODING 216
SWIDTH 0 0
DWIDTH 0 0
BBX 3 5 -4 -6
BITMAP
e0
a0
e0
20
20
ENDCHAR
STARTCHAR Ugrave
ENCODING 217
SWIDTH 0 0
DWIDTH 0 0
BBX 6 5 -7 -6
BITMAP
64
94
64
24
1c
ENDCHAR
STARTCHAR Uacute
ENCODING 218
SWIDTH 0 0
DWIDTH 0 0
BBX 1 1 -2 -3
BITMAP
80
ENDCHAR
STARTCHAR Ucircumflex
ENCODING 219
SWIDTH 0 0
DWIDTH 0 0
BBX 1 1 -3 -6
BITMAP
80
ENDCHAR
STARTCHAR Udiaeresis
ENCODING 220
SWIDTH 0 0
DWIDTH 0 0
BBX 1 1 0 0
BITMAP
00
ENDCHAR
STARTCHAR Yacute
ENCODING 221
SWIDTH 0 0
DWIDTH 0 0
BBX 1 1 0 0
BITMAP
00
ENDCHAR
STARTCHAR THORN
ENCODING 222
SWIDTH 0 0
DWIDTH 0 0
BBX 1 1 0 0
BITMAP
00
ENDCHAR
STARTCHAR ssharp
ENCODING 223
SWIDTH 0 0
DWIDTH 0 0
BBX 1 1 0 0
BITMAP
00
ENDCHAR
STARTCHAR agrave
ENCODING 224
SWIDTH 200 0
DWIDTH 5 0
BBX 4 8 1 0
BITMAP
80
80
80
80
80
e0
90
e0
ENDCHAR
STARTCHAR aacute
ENCODING 225
SWIDTH 360 0
DWIDTH 9 0
BBX 8 8 1 0
BITMAP
88
88
88
88
88
ee
99
ee
ENDCHAR
STARTCHAR acircumflex
ENCODING 226
SWIDTH 200 0
DWIDTH 5 0
BBX 6 15 -1 0
BITMAP
7c
20
10
10
10
10
10
10
10
10
10
10
1c
14
1c
ENDCHAR
STARTCHAR atilde
ENCODING 227
SWIDTH 200 0
DWIDTH 5 0
BBX 6 15 -1 0
BITMAP
f0
b0
f0
10
10
10
10
10
10
10
10
10
1c
14
1c
ENDCHAR
STARTCHAR adiaeresis
ENCODING 228
SWIDTH 240 0
DWIDTH 6 0
BBX 7 15 -1 0
BITMAP
58
68
68
68
08
08
08
08
08
08
08
08
0e
0a
0e
ENDCHAR
STARTCHAR aring
ENCODING 229
SWIDTH 280 0
DWIDTH 7 0
BBX 6 12 0 -4
BITMAP
78
44
04
04
04
04
04
04
04
04
04
04
ENDCHAR
STARTCHAR ae
ENCODING 230
SWIDTH 400 0
DWIDTH 10 0
BBX 6 11 3 -3
BITMAP
f8
84
e4
e4
04
04
04
04
04
0c
18
ENDCHAR
STARTCHAR ccedilla
ENCODING 231
SWIDTH 0 0
DWIDTH 0 0
BBX 6 5 -7 10
BITMAP
04
7c
80
ec
58
ENDCHAR
STARTCHAR egrave
ENCODING 232
SWIDTH 0 0
DWIDTH 0 0
BBX 1 3 -2 15
BITMAP
80
80
80
ENDCHAR
STARTCHAR eacute
ENCODING 233
SWIDTH 0 0
DWIDTH 0 0
BBX 5 3 -5 15
BITMAP
c8
c8
70
ENDCHAR
STARTCHAR ecircumflex
ENCODING 234
SWIDTH 0 0
DWIDTH 0 0
BBX 6 3 -6 15
BITMAP
f4
d4
f8
ENDCHAR
STARTCHAR ediaeresis
ENCODING 235
SWIDTH 0 0
DWIDTH 0 0
BBX 4 3 -4 15
BITMAP
20
f0
20
ENDCHAR
STARTCHAR igrave
ENCODING 236
SWIDTH 0 0
DWIDTH 0 0
BBX 5 4 -4 14
BITMAP
38
c0
e0
e0
ENDCHAR
STARTCHAR iacute
ENCODING 237
SWIDTH 0 0
DWIDTH 0 0
BBX 3 3 -4 10
BITMAP
40
a0
e0
ENDCHAR
STARTCHAR icircumflex
ENCODING 238
SWIDTH 0 0
DWIDTH 0 0
BBX 3 3 -4 12
BITMAP
e0
a0
e0
ENDCHAR
STARTCHAR idiaeresis
ENCODING 239
SWIDTH 320 0
DWIDTH 8 0
BBX 9 8 0 0
BITMAP
7c00
5f80
bc80
be80
bc80
9d80
4300
3c00
ENDCHAR
STARTCHAR eth
ENCODING 240
SWIDTH 360 0
DWIDTH 9 0
BBX 7 6 1 0
BITMAP
78
c6
82
82
46
38
ENDCHAR
STARTCHAR ntilde
ENCODING 241
SWIDTH 360 0
DWIDTH 9 0
BBX 7 6 1 0
BITMAP
3c
c2
ba
aa
5a
24
ENDCHAR
STARTCHAR ograve
ENCODING 242
SWIDTH 440 0
DWIDTH 11 0
BBX 9 9 1 0
BITMAP
8000
8000
8000
9f80
ba80
a880
b880
c080
7f80
ENDCHAR
STARTCHAR oacute
ENCODING 243
SWIDTH 400 0
DWIDTH 10 0
BBX 8 6 1 0
BITMAP
76
89
89
e9
99
69
ENDCHAR
STARTCHAR ocircumflex
ENCODING 244
SWIDTH 400 0
DWIDTH 10 0
BBX 10 10 1 0
BITMAP
00c0
0080
0080
0080
7f00
c800
9400
9400
cc00
7f00
ENDCHAR
STARTCHAR otilde
ENCODING 245
SWIDTH 400 0
DWIDTH 10 0
BBX 10 10 1 0
BITMAP
00c0
0080
1c80
1580
7f00
c800
9400
9400
cc00
7f00
ENDCHAR
STARTCHAR odiaeresis
ENCODING 246
SWIDTH 320 0
DWIDTH 8 0
BBX 7 10 0 0
BITMAP
80
80
40
40
7c
06
22
52
56
38
ENDCHAR
STARTCHAR division
ENCODING 247
SWIDTH 440 0
DWIDTH 11 0
BBX 10 9 1 0
BITMAP
00c0
0080
0080
6c80
9280
8280
e280
d300
6600
ENDCHAR
STARTCHAR oslash
ENCODING 248
SWIDTH 400 0
DWIDTH 10 0
BBX 9 9 1 0
BITMAP
0080
0080
0080
7f80
c000
8700
b500
bb00
6f00
ENDCHAR
STARTCHAR ugrave
ENCODING 249
SWIDTH 360 0
DWIDTH 9 0
BBX 8 9 1 0
BITMAP
01
01
01
77
88
84
b4
b2
73
ENDCHAR
STARTCHAR uacute
ENCODING 250
SWIDTH 1000 0
DWIDTH 25 0
BBX 24 1 0 3
BITMAP
ffffff
ENDCHAR
STARTCHAR ucircumflex
ENCODING 251
SWIDTH 480 0
DWIDTH 12 0
BBX 12 1 0 3
BITMAP
fff0
ENDCHAR
STARTCHAR udiaeresis
ENCODING 252
SWIDTH 0 0
DWIDTH 0 0
BBX 3 5 -4 -10
BITMAP
e0
a0
e0
20
20
ENDCHAR
STARTCHAR yacute
ENCODING 253
SWIDTH 0 0
DWIDTH 0 0
BBX 6 5 -7 -10
BITMAP
64
94
64
24
1c
ENDCHAR
STARTCHAR thorn
ENCODING 254
SWIDTH 480 0
DWIDTH 12 0
BBX 10 10 1 0
BITMAP
1e00
6180
5e40
9240
9e40
9440
9640
b340
4180
3e00
ENDCHAR
STARTCHAR ydiaeresis
ENCODING 255
SWIDTH 0 0
DWIDTH 0 0
BBX 1 1 0 0
BITMAP
00
ENDCHAR
ENDFONT
